<svg xmlns="http://www.w3.org/2000/svg" xmlns:xlink="http://www.w3.org/1999/xlink" width="24" zoomAndPan="magnify" viewBox="0 0 375 374.999991" height="500" preserveAspectRatio="xMidYMid meet" version="1.0"><defs><g/><clipPath id="025f12fae8"><path d="M 232.035156 277 L 369 277 L 369 299 L 232.035156 299 Z M 6 277 L 196.972656 277 L 196.972656 299 L 6 299 Z M 6 277 " clip-rule="nonzero"/></clipPath></defs><g clip-path="url(#025f12fae8)"><path fill="#00c6cf" d="M 6.261719 277.128906 L 368.734375 277.128906 L 368.734375 298.878906 L 6.261719 298.878906 Z M 6.261719 277.128906 " fill-opacity="1" fill-rule="nonzero"/></g><g fill="#00c6cf" fill-opacity="1"><g transform="translate(6.263012, 265.877581)"><g><path d="M 165.828125 -157.953125 L 92.703125 -52.203125 L 83.25 0 L 44.78125 0 L 54.21875 -52.203125 L 18 -157.953125 L 61.65625 -157.953125 L 80.546875 -92.03125 L 122.625 -157.953125 Z M 165.828125 -157.953125 "/></g></g></g><g fill="#00c6cf" fill-opacity="1"><g transform="translate(157.232692, 265.877581)"><g><path d="M 98.546875 -113.171875 C 99.148438 -121.273438 96.226562 -126.523438 89.78125 -128.921875 L 83.703125 -94.046875 C 94.503906 -90.898438 102.789062 -88.160156 108.5625 -85.828125 C 114.332031 -83.503906 119.503906 -79.832031 124.078125 -74.8125 C 128.660156 -69.789062 130.953125 -63.078125 130.953125 -54.671875 C 130.953125 -53.023438 130.648438 -50.101562 130.046875 -45.90625 C 128.703125 -37.65625 125.253906 -30.039062 119.703125 -23.0625 C 114.148438 -16.082031 106.835938 -10.378906 97.765625 -5.953125 C 88.691406 -1.535156 78.378906 0.894531 66.828125 1.34375 L 63.671875 19.578125 L 49.5 19.578125 L 52.65625 1.125 C 38.40625 -0.226562 27.15625 -4.316406 18.90625 -11.140625 C 10.65625 -17.960938 6.53125 -27.300781 6.53125 -39.15625 C 6.53125 -42.445312 6.675781 -44.921875 6.96875 -46.578125 L 47.921875 -46.578125 C 47.023438 -37.273438 50.398438 -31.5 58.046875 -29.25 L 64.34375 -64.796875 C 54.144531 -67.492188 46.082031 -70.039062 40.15625 -72.4375 C 34.238281 -74.84375 28.988281 -78.59375 24.40625 -83.6875 C 19.832031 -88.789062 17.546875 -95.546875 17.546875 -103.953125 C 17.546875 -107.097656 17.847656 -110.171875 18.453125 -113.171875 C 20.847656 -126.828125 27.894531 -137.816406 39.59375 -146.140625 C 51.300781 -154.460938 65.175781 -159.070312 81.21875 -159.96875 L 84.375 -178.203125 L 98.546875 -178.203125 L 95.40625 -159.96875 C 109.65625 -158.769531 120.675781 -154.757812 128.46875 -147.9375 C 136.269531 -141.113281 140.171875 -131.703125 140.171875 -119.703125 C 140.171875 -118.347656 140.019531 -116.171875 139.71875 -113.171875 Z M 59.40625 -114.96875 C 59.25 -114.375 59.171875 -113.476562 59.171875 -112.28125 C 59.171875 -106.570312 62.921875 -102.070312 70.421875 -98.78125 L 75.828125 -130.046875 C 71.472656 -129.296875 67.832031 -127.644531 64.90625 -125.09375 C 61.988281 -122.550781 60.15625 -119.175781 59.40625 -114.96875 Z M 89.546875 -44.546875 C 89.703125 -45.148438 89.78125 -45.976562 89.78125 -47.03125 C 89.78125 -52.875 85.800781 -57.296875 77.84375 -60.296875 L 72.21875 -28.578125 C 76.875 -29.328125 80.738281 -31.125 83.8125 -33.96875 C 86.882812 -36.820312 88.796875 -40.347656 89.546875 -44.546875 Z M 89.546875 -44.546875 "/></g></g></g><g fill="#00c6cf" fill-opacity="1"><g transform="translate(305.27747, 265.877581)"><g><path d="M 20.25 1.796875 C 14.25 1.796875 9.484375 0.1875 5.953125 -3.03125 C 2.429688 -6.257812 0.671875 -10.347656 0.671875 -15.296875 C 0.671875 -22.203125 3.257812 -28.050781 8.4375 -32.84375 C 13.613281 -37.644531 20.023438 -40.046875 27.671875 -40.046875 C 33.523438 -40.046875 38.175781 -38.429688 41.625 -35.203125 C 45.070312 -31.984375 46.796875 -27.820312 46.796875 -22.71875 C 46.796875 -15.96875 44.207031 -10.191406 39.03125 -5.390625 C 33.863281 -0.597656 27.601562 1.796875 20.25 1.796875 Z M 20.25 1.796875 "/></g></g></g></svg>