<?xml version="1.0" standalone="no"?>
<!DOCTYPE svg PUBLIC "-//W3C//DTD SVG 20010904//EN"
 "http://www.w3.org/TR/2001/REC-SVG-20010904/DTD/svg10.dtd">
<svg version="1.0" xmlns="http://www.w3.org/2000/svg"
 width="800.000000pt" height="723.000000pt" viewBox="0 0 800.000000 723.000000"
 preserveAspectRatio="xMidYMid meet">

<g transform="translate(0.000000,723.000000) scale(0.100000,-0.100000)"
fill="#00C6CF" stroke="none">
<path d="M0 7211 c0 -11 669 -896 1486 -1967 818 -1071 1487 -1953 1488 -1960
1 -6 -639 -748 -1421 -1648 l-1423 -1636 614 0 614 0 1102 1260 c606 693 1106
1260 1110 1260 4 0 441 -567 971 -1260 l963 -1260 1234 0 1234 0 -29 39 c-15
21 -721 955 -1568 2075 -847 1120 -1541 2040 -1543 2044 -2 6 765 882 2409
2755 l279 317 -613 0 -614 0 -1022 -1155 -1023 -1155 -196 259 c-109 143 -501
663 -872 1155 l-675 895 -1252 0 c-1231 1 -1253 1 -1253 -18z m4342 -3581
c1209 -1597 2198 -2906 2198 -2907 0 -2 -152 -3 -338 -3 l-338 0 -2219 2900
c-1221 1596 -2222 2905 -2223 2911 -3 6 128 8 360 7 l363 -3 2197 -2905z"/>
</g>
</svg>